# xmcd
#
# Track frame offsets: 
#        150
#        13332
#        33306
#        57787
#        76471
#        93280
#        114075
#        131876
#        153336
#        170293
#        191031
#        209755
#
# Disc length: 3069 seconds
#
# Revision: 4
# Processed by: cddbd v1.5.2PL0 Copyright (c) Steve Scherf et al.
# Submitted via: ExactAudioCopy v0.99pb4
#
DISCID=9d0bfb0c
DTITLE=Mick Fleetwood Band - Something Big
DYEAR=2004
DGENRE=Country
TTITLE0=Bitter End
TTITLE1=Something Big
TTITLE2=Where The Wind Blows
TTITLE3=It's Only Money
TTITLE4=Walking With The Angels
TTITLE5=Making Other Plans
TTITLE6=These Walls
TTITLE7=Looking Into You
TTITLE8=Passion
TTITLE9=No Borders
TTITLE10=Watching Over You
TTITLE11=Heaven Sent
EXTD=Label: Sanctuary Records Group Limited\nSANCD311
EXTT0=
EXTT1=
EXTT2=
EXTT3=
EXTT4=
EXTT5=
EXTT6=
EXTT7=
EXTT8=
EXTT9=
EXTT10=
EXTT11=
PLAYORDER=
